<?xml version="1.0" encoding="UTF-8" standalone="no"?><!DOCTYPE svg PUBLIC "-//W3C//DTD SVG 1.1//EN" "http://www.w3.org/Graphics/SVG/1.1/DTD/svg11.dtd"><svg width="100%" height="100%" viewBox="0 0 1024 512" version="1.1" xmlns="http://www.w3.org/2000/svg" xmlns:xlink="http://www.w3.org/1999/xlink" xml:space="preserve" style="fill-rule:evenodd;clip-rule:evenodd;stroke-linecap:round;stroke-linejoin:round;stroke-miterlimit:1.5;"><g id="Background"><rect x="0" y="0" width="1024" height="512" style="fill:#784542;"/><rect x="0" y="0" width="11.079" height="512" style="fill:#51271e;"/><rect x="101.292" y="0" width="11.079" height="512" style="fill:#51271e;"/><rect x="202.584" y="0" width="11.079" height="512" style="fill:#51271e;"/><rect x="303.876" y="0" width="11.079" height="512" style="fill:#51271e;"/><rect x="405.168" y="0" width="11.079" height="512" style="fill:#51271e;"/><rect x="506.461" y="0" width="11.079" height="512" style="fill:#51271e;"/><rect x="607.753" y="0" width="11.079" height="512" style="fill:#51271e;"/><rect x="709.045" y="0" width="11.079" height="512" style="fill:#51271e;"/><rect x="810.337" y="0" width="11.079" height="512" style="fill:#51271e;"/><rect x="911.629" y="0" width="11.079" height="512" style="fill:#51271e;"/><rect x="1012.92" y="0" width="11.079" height="512" style="fill:#51271e;"/></g><g><path d="M50.235,99.959c-12.936,-7.117 -18.864,-15.657 -19.511,-25.27c0.345,-11.323 3.394,-22.479 11.925,-33.295" style="fill:#86c155;"/><path d="M62.448,95.481c-11.159,-9.652 -15.166,-19.237 -13.784,-28.773c2.711,-11.002 8.031,-21.277 18.642,-30.079" style="fill:#86c155;"/><path d="M78.874,107.864c-12.513,-10.901 -17.007,-21.728 -15.457,-32.498c3.04,-12.425 9.005,-24.03 20.903,-33.972" style="fill:#86c155;"/><path d="M50.235,99.959c10.699,-10.156 14.257,-19.916 12.433,-29.378c-3.219,-10.864 -9.01,-20.883 -20.019,-29.187" style="fill:#8ac85c;"/><path d="M62.448,95.481c12.592,-7.706 18.117,-16.51 18.317,-26.143c-0.871,-11.295 -4.434,-22.298 -13.459,-32.709" style="fill:#8ac85c;"/><path d="M78.874,107.864c14.119,-8.704 20.314,-18.648 20.538,-29.527c-0.976,-12.757 -4.972,-25.184 -15.092,-36.943" style="fill:#8ac85c;"/><rect x="28.109" y="83.375" width="73.918" height="64.28" style="fill:#bd6a3f;"/><rect x="22.178" y="72.246" width="85.78" height="20.114" style="fill:#de8356;"/></g><rect x="126.401" y="31.749" width="181.6" height="114.71" style="fill:#d6514c;"/><rect x="140.401" y="44.119" width="153.6" height="89.968" style="fill:#fdd07b;"/><path d="M199.801,70.735l33,63.353l-66.001,0l33.001,-63.353Z" style="fill:#ffb947;"/><path d="M232.801,61.738l37.687,72.35l-75.374,0l37.687,-72.35Z" style="fill:#ffb135;"/><rect x="965.6" y="28" width="58.4" height="119.655" style="fill:#ea5a3d;"/><rect x="792.8" y="81.981" width="165.6" height="64.477" style="fill:#282c34;"/><rect x="792.8" y="101.099" width="165.6" height="26.241" style="fill:#21252b;"/><g transform="matrix(0.8,0,0,0.749737,35.081,-31.7756)"><text x="1008px" y="203px" style="font-family:'Lato-Bold', 'Lato', sans-serif;font-weight:700;font-size:22.88px;fill:none;">4:00 PM</text><text x="1008px" y="203px" style="font-family:'Lato-Bold', 'Lato', sans-serif;font-weight:700;font-size:22.88px;fill:#99c27c;">4:00 PM</text></g><rect x="0" y="96.226" width="1024" height="65.977" style="fill:#d7e5f6;fill-opacity:0.454902;"/><rect x="0" y="146.458" width="1024" height="15.744" style="fill:#d7e5f6;"/><g><path d="M76.062,313.381l34.059,-69.723l56.058,58.532" style="fill:none;stroke:#fff;stroke-width:2px;"/><path d="M194.959,299.273c0,0 -110.414,12.882 -143.425,16.733c-2.438,0.284 -4.663,1.529 -6.18,3.459c-1.517,1.93 -2.201,4.385 -1.902,6.822c2.743,22.316 9.756,79.382 12.971,105.534c0.915,7.447 7.671,12.758 15.124,11.888c37.294,-4.351 139.168,-16.235 139.168,-16.235l-15.756,-128.201Z" style="fill:#4895f3;"/><path d="M184.815,310.86l-122.812,14.327l13.235,107.689l122.812,-14.328l-13.235,-107.688Z" style="fill:#fff;"/><path d="M181.365,314.961l-118.914,13.873l12.228,99.492l118.913,-13.873l-12.227,-99.492Z" style="fill:#4895f3;"/><path d="M98.661,324.61l-3.509,0.409l12.228,99.492l3.509,-0.409l-12.228,-99.492Z" style="fill:#a3cafa;fill-opacity:0.462745;"/><path d="M113.63,323.321l-3.509,0.41l12.228,99.492l3.509,-0.41l-12.228,-99.492Z" style="fill:#a3cafa;fill-opacity:0.462745;"/><path d="M133.75,320.516l-3.508,0.41l12.227,99.491l3.509,-0.409l-12.228,-99.492Z" style="fill:#a3cafa;fill-opacity:0.462745;"/><path d="M148.719,319.228l-3.509,0.409l12.228,99.492l3.509,-0.409l-12.228,-99.492Z" style="fill:#a3cafa;fill-opacity:0.462745;"/><path d="M184.723,342.284l-0.421,-3.418l-118.376,13.81l0.42,3.418l118.377,-13.81Z" style="fill:#a3cafa;fill-opacity:0.454902;"/><path d="M185.971,356.876l-0.42,-3.418l-118.376,13.81l0.42,3.418l118.376,-13.81Z" style="fill:#a3cafa;fill-opacity:0.462745;"/><path d="M188.924,376.471l-0.42,-3.419l-118.376,13.81l0.42,3.419l118.376,-13.81Z" style="fill:#a3cafa;fill-opacity:0.462745;"/><path d="M190.173,391.063l-0.42,-3.419l-118.377,13.81l0.421,3.419l118.376,-13.81Z" style="fill:#a3cafa;fill-opacity:0.462745;"/><path d="M84.382,326.276l-21.931,2.558l0.917,7.464l21.931,-2.558l-0.917,-7.464Z" style="fill:#fff;"/><path d="M82.627,326.48l-20.176,2.354l0.734,5.971l20.176,-2.354l-0.734,-5.971Z" style="fill:#4895f3;"/><path d="M86.004,423.378l83.963,-104.058" style="fill:none;stroke:#a3cafa;stroke-width:0.9px;stroke-dasharray:4.5,4.5,0,0;"/><path d="M60.943,312.131c-0.268,-2.185 -1.854,-3.98 -3.989,-4.515c-3.7,-0.933 -7.24,-0.832 -10.599,0.543c-2.865,1.128 -4.605,4.052 -4.229,7.109c2.549,20.972 14.047,114.522 16.225,132.239c0.227,1.851 1.63,3.34 3.464,3.677c4.777,0.876 8.915,0.355 12.577,-1.224c1.953,-0.83 3.12,-2.852 2.861,-4.958c-2.282,-18.728 -13.993,-114.015 -16.31,-132.871Z" style="fill:#fff;"/><ellipse cx="110.889" cy="248.392" rx="3.534" ry="3.013" style="fill:#ff383a;stroke:#c74344;stroke-width:2px;"/><path d="M97.492,375.008c0.531,4.492 5.529,8.18 12.906,9.748c-0.596,7.111 1.23,12.584 5.374,14.331c4.259,1.796 10.025,-0.425 15.105,-5.868c6.05,3.998 11.829,5.19 15.452,2.565c3.725,-2.698 4.231,-8.818 1.927,-15.823c7.112,-3.211 10.824,-7.251 10.286,-11.802c-0.518,-4.388 -5.477,-7.677 -12.757,-9.24c0.686,-7.642 -1.289,-12.96 -5.604,-14.779c-4.161,-1.755 -9.563,0.787 -14.59,6.15c-6.405,-4.375 -12.16,-5.285 -15.933,-2.551c-3.638,2.635 -4.075,8.465 -1.817,15.386c-6.583,3.099 -10.865,7.513 -10.349,11.883Z" style="fill:#fff;fill-rule:nonzero;"/><path d="M144.578,361.417c-0.6,-0.128 -1.203,-0.241 -1.809,-0.34c0.052,-0.396 0.096,-0.793 0.133,-1.19c0.582,-6.397 -0.876,-11.333 -4.022,-12.66c-3.016,-1.271 -7.446,0.905 -11.65,5.39c-0.414,0.442 -0.816,0.895 -1.207,1.358c-0.327,-0.242 -0.658,-0.478 -0.994,-0.708c-5.397,-3.686 -10.515,-4.92 -13.266,-2.928c-2.637,1.911 -2.915,6.737 -1.025,12.526c0.187,0.573 0.39,1.141 0.607,1.704c-0.672,0.27 -1.318,0.55 -1.934,0.84c-5.51,2.594 -8.814,6.061 -8.44,9.231c0.387,3.273 4.71,6.116 10.925,7.436c0.504,0.106 1.01,0.2 1.519,0.282c-0.087,0.642 -0.154,1.287 -0.203,1.933c-0.447,5.946 0.985,10.467 3.99,11.735c3.104,1.309 7.791,-0.92 12.07,-5.505c0.338,-0.363 0.675,-0.745 1.011,-1.143c0.529,0.394 1.069,0.773 1.619,1.138c5.065,3.346 9.8,4.396 12.428,2.492c2.715,-1.967 3.073,-7.036 1.132,-12.937c-0.148,-0.451 -0.313,-0.91 -0.492,-1.376c0.332,-0.137 0.656,-0.276 0.972,-0.419c5.979,-2.704 9.639,-6.401 9.247,-9.719c-0.376,-3.181 -4.523,-5.833 -10.611,-7.14l0,0Z" style="fill:#53c1de;fill-rule:nonzero;"/><path d="M144.961,376.215c-0.285,0.129 -0.579,0.256 -0.878,0.38c-0.937,-2.039 -2.129,-4.186 -3.537,-6.384c0.814,-2.391 1.441,-4.713 1.86,-6.89c0.573,0.094 1.131,0.199 1.67,0.315c5.216,1.119 8.571,3.264 8.797,5.181c0.242,2.042 -2.75,5.064 -7.912,7.398l0,0Zm-1.719,4.549c0.858,2.61 1.221,5.015 1.085,6.943c-0.123,1.732 -0.639,2.935 -1.388,3.478c-1.595,1.155 -5.397,0.313 -9.728,-2.549c-0.497,-0.328 -1,-0.681 -1.507,-1.058c1.336,-1.799 2.639,-3.863 3.881,-6.132c2.594,-0.521 5.027,-1.169 7.213,-1.927c0.161,0.423 0.31,0.838 0.444,1.245l0,0Zm-21.327,12.611c-1.602,0.762 -2.93,0.927 -3.786,0.566c-1.824,-0.769 -2.974,-4.399 -2.592,-9.484c0.046,-0.601 0.109,-1.201 0.189,-1.798c2.277,0.229 4.776,0.298 7.428,0.21c1.743,1.889 3.537,3.603 5.316,5.081c-0.299,0.354 -0.607,0.702 -0.923,1.042c-1.892,2.028 -3.85,3.535 -5.632,4.383l0,0Zm-9.523,-13.519c-2.747,-0.584 -5.066,-1.483 -6.71,-2.563c-1.477,-0.971 -2.288,-2.009 -2.395,-2.913c-0.227,-1.924 2.426,-4.707 7.138,-6.926c0.592,-0.277 1.192,-0.538 1.799,-0.781c0.933,2.074 2.088,4.222 3.431,6.375c-0.815,2.429 -1.448,4.814 -1.876,7.066c-0.464,-0.075 -0.927,-0.161 -1.387,-0.258l0,0Zm0.567,-17.68c-1.618,-4.959 -1.394,-8.862 0.195,-10.014c1.694,-1.226 5.877,-0.217 10.536,2.965c0.298,0.204 0.598,0.418 0.9,0.641c-1.38,1.824 -2.715,3.875 -3.96,6.087c-2.523,0.516 -4.92,1.16 -7.106,1.907c-0.202,-0.524 -0.39,-1.053 -0.565,-1.586l0,0Zm24.052,3.003c-0.635,-0.833 -1.289,-1.652 -1.96,-2.457c1.755,0.019 3.446,0.116 5.043,0.287c-0.295,1.512 -0.697,3.103 -1.198,4.744c-0.611,-0.871 -1.239,-1.729 -1.885,-2.574l0,0Zm-10.606,-7.981c1.201,1.008 2.42,2.147 3.634,3.395c-2.147,0.141 -4.285,0.381 -6.409,0.717c0.894,-1.471 1.824,-2.849 2.775,-4.112l0,0Zm-8.527,10.143c-0.426,0.958 -0.829,1.927 -1.208,2.903c-0.859,-1.483 -1.617,-2.95 -2.263,-4.377c1.507,-0.511 3.124,-0.972 4.818,-1.374c-0.472,0.939 -0.921,1.889 -1.347,2.848l0,0Zm3.305,13.293c-1.799,0.006 -3.504,-0.068 -5.089,-0.222c0.3,-1.56 0.705,-3.191 1.206,-4.861c0.599,0.868 1.219,1.722 1.86,2.561c0.654,0.856 1.328,1.697 2.023,2.522l0,0Zm8.708,5.511c-1.235,-1.031 -2.48,-2.185 -3.712,-3.438c1.043,-0.076 2.103,-0.175 3.179,-0.296c1.105,-0.124 2.195,-0.27 3.265,-0.438c-0.891,1.517 -1.806,2.915 -2.732,4.172Zm9.645,-13.17c0.914,1.528 1.709,3.016 2.369,4.442c-1.53,0.526 -3.194,0.998 -4.958,1.407c0.469,-0.949 0.918,-1.907 1.347,-2.874c0.436,-0.983 0.85,-1.975 1.242,-2.975l0,0Zm-3.382,2.073c-0.657,1.482 -1.363,2.943 -2.118,4.38c-1.595,0.293 -3.25,0.537 -4.945,0.727c-1.687,0.189 -3.334,0.322 -4.926,0.4c-1.094,-1.227 -2.139,-2.494 -3.134,-3.798c-0.99,-1.297 -1.93,-2.63 -2.816,-3.997c0.542,-1.527 1.144,-3.034 1.803,-4.517l0,0c0.658,-1.483 1.375,-2.942 2.147,-4.372c1.598,-0.3 3.244,-0.547 4.915,-0.735c1.679,-0.188 3.342,-0.311 4.968,-0.373c1.076,1.222 2.108,2.479 3.093,3.771c0.99,1.295 1.936,2.621 2.838,3.976c-0.553,1.533 -1.161,3.047 -1.825,4.538l0,0Zm1.8,-25.736c1.936,0.817 3.129,4.851 2.625,10.374c-0.033,0.36 -0.073,0.719 -0.119,1.078c-2.309,-0.254 -4.796,-0.356 -7.381,-0.303c-1.735,-1.9 -3.5,-3.606 -5.242,-5.059c0.361,-0.427 0.733,-0.845 1.115,-1.254c3.602,-3.843 7.184,-5.602 9.002,-4.836l0,0Z" style="fill:#fff;fill-rule:nonzero;"/><path d="M127.523,366.881c2.674,-0.3 5.091,1.569 5.399,4.174c0.308,2.605 -1.61,4.961 -4.284,5.261c-2.674,0.299 -5.091,-1.569 -5.399,-4.175c-0.308,-2.604 1.61,-4.96 4.284,-5.26" style="fill:#53c1de;fill-rule:nonzero;"/></g><g><path d="M825.803,379.939c0,-7.178 -2.852,-14.063 -7.928,-19.139c-5.076,-5.076 -11.961,-7.928 -19.139,-7.928c-107.141,0 -500.912,0 -608.053,0c-7.178,0 -14.063,2.852 -19.139,7.928c-5.076,5.076 -7.928,11.961 -7.928,19.139c0,92.535 0,390.596 0,390.596l662.187,0c0,0 0,-298.061 0,-390.596Z" style="fill:#1f1f1f;"/><rect x="195.35" y="386.538" width="598.718" height="350.332" style="fill:#282c34;"/><rect x="195.35" y="386.538" width="83.567" height="350.332" style="fill:#21252b;"/><rect x="195.35" y="386.538" width="598.718" height="24.197" style="fill:#d7e5f6;"/><ellipse cx="208.573" cy="398.636" rx="5.818" ry="5.786" style="fill:#ef4e4e;"/><ellipse cx="222.324" cy="398.636" rx="5.818" ry="5.786" style="fill:#facc39;"/><ellipse cx="236.076" cy="398.636" rx="5.818" ry="5.786" style="fill:#7cc241;"/><rect x="299.015" y="426.515" width="495.053" height="15.781" style="fill:#2a2f36;"/><rect x="279.975" y="410.735" width="19.041" height="326.135" style="fill:#282c34;"/><rect x="288.834" y="430.461" width="1.322" height="7.89" style="fill:#383a40;"/><rect x="288.834" y="445.189" width="1.322" height="7.89" style="fill:#383a40;"/><rect x="288.834" y="459.918" width="1.322" height="7.89" style="fill:#383a40;"/><rect x="288.834" y="474.647" width="1.322" height="7.89" style="fill:#383a40;"/><rect x="288.834" y="489.375" width="1.322" height="7.89" style="fill:#383a40;"/><rect x="288.834" y="504.104" width="1.322" height="7.89" style="fill:#383a40;"/><rect x="297.958" y="416.652" width="32.263" height="1.841" style="fill:#383a40;"/><rect x="221.002" y="426.121" width="32.263" height="1.841" style="fill:#383a40;"/><rect x="221.002" y="439.797" width="32.263" height="1.841" style="fill:#383a40;"/><rect x="221.002" y="453.474" width="32.263" height="1.841" style="fill:#383a40;"/><rect x="221.002" y="467.151" width="32.263" height="1.841" style="fill:#383a40;"/><rect x="221.002" y="480.827" width="32.263" height="1.841" style="fill:#383a40;"/><rect x="278.917" y="410.735" width="1.058" height="14.729" style="fill:#598def;"/><rect x="301.131" y="453.869" width="48.659" height="5.26" style="fill:#99c27c;"/><rect x="665.016" y="453.869" width="48.659" height="5.26" style="fill:#99c27c;"/><rect x="698.866" y="481.222" width="48.659" height="5.26" style="fill:#c57bdb;"/><rect x="404.796" y="481.222" width="76.162" height="5.26" style="fill:#99c27c;"/><rect x="485.189" y="453.869" width="71.931" height="5.26" style="fill:#db6b75;"/><rect x="590.97" y="481.222" width="87.798" height="5.26" style="fill:#db6b75;"/><rect x="572.987" y="453.869" width="71.931" height="5.26" style="fill:#d7c8c8;"/><rect x="501.056" y="481.222" width="71.931" height="5.26" style="fill:#d7c8c8;"/><rect x="363.542" y="453.869" width="106.838" height="5.26" style="fill:#c57bdb;"/><rect x="301.131" y="504.367" width="106.838" height="5.26" style="fill:#d7c8c8;"/><rect x="424.894" y="504.367" width="106.838" height="5.26" style="fill:#db6b75;"/><rect x="552.889" y="504.367" width="106.838" height="5.26" style="fill:#db6b75;"/><rect x="677.71" y="504.367" width="88.856" height="5.26" style="fill:#99c27c;"/><rect x="301.131" y="481.222" width="82.509" height="5.26" style="fill:#c57bdb;"/></g><g><g><rect x="846.484" y="242.243" width="84.731" height="160.552" style="fill:#fff;"/><rect x="846.484" y="242.243" width="84.731" height="40.138" style="fill:#5adafd;"/><rect x="846.484" y="282.381" width="84.731" height="40.138" style="fill:#32d3ff;"/><rect x="846.484" y="322.519" width="84.731" height="40.138" style="fill:#1ac8f7;"/><rect x="846.484" y="362.657" width="84.731" height="40.138" style="fill:#fff;"/></g><ellipse cx="888.849" cy="242.243" rx="4.957" ry="4.314" style="fill:#ff383a;stroke:#c74344;stroke-width:2px;"/></g><g><rect x="897.684" y="432.592" width="84.731" height="160.552" style="fill:#fff;"/><rect x="897.684" y="432.592" width="84.731" height="40.138" style="fill:#7fb6fa;"/><rect x="897.684" y="472.73" width="84.731" height="40.138" style="fill:#61a2f1;"/><rect x="897.684" y="512.868" width="84.731" height="40.138" style="fill:#4895f3;"/><ellipse cx="940.049" cy="432.592" rx="4.957" ry="4.314" style="fill:#ff383a;stroke:#c74344;stroke-width:2px;"/></g><rect x="494.71" y="385.704" width="299.169" height="354.651" style="fill:#21252b;"/><rect x="494.71" y="405.957" width="299.169" height="145.513" style="fill:#1f1a20;stroke:#ebebeb;stroke-width:0.23px;"/><g id="Studio.-Panel"><rect x="724.712" y="406.199" width="69.166" height="145.272" style="fill:#353434;"/><rect x="724.712" y="406.199" width="69.166" height="14.673" style="fill:#322f2f;"/><g id="Palette"><g><rect x="728.866" y="425.288" width="4.681" height="4.889" style="fill:#8ac85c;"/><rect x="735.888" y="425.288" width="4.681" height="4.889" style="fill:#71cdf4;"/><rect x="742.91" y="425.288" width="4.681" height="4.889" style="fill:#eb4537;"/><rect x="749.932" y="425.288" width="4.681" height="4.889" style="fill:#f38054;"/><rect x="756.954" y="425.288" width="4.681" height="4.889" style="fill:#c67bd1;"/><rect x="763.976" y="425.288" width="4.681" height="4.889" style="fill:#fce3a6;"/><rect x="770.999" y="425.288" width="4.681" height="4.889" style="fill:#64a6c2;"/><rect x="778.021" y="425.288" width="4.681" height="4.889" style="fill:#54be80;"/><rect x="785.043" y="425.288" width="4.681" height="4.889" style="fill:#2e7ff7;"/></g><rect x="728.866" y="435.065" width="4.681" height="4.889" style="fill:#b07b4f;"/><rect x="735.888" y="435.065" width="4.681" height="4.889" style="fill:#fab728;"/><rect x="742.91" y="435.065" width="4.681" height="4.889" style="fill:#64a6c2;"/><rect x="749.932" y="435.065" width="4.681" height="4.889" style="fill:#5c4023;"/><rect x="756.954" y="435.065" width="4.681" height="4.889" style="fill:#00c2df;"/><rect x="763.976" y="435.065" width="4.681" height="4.889" style="fill:#50e3c2;"/><rect x="770.999" y="435.065" width="4.681" height="4.889" style="fill:#b5e4f6;"/><rect x="778.021" y="435.065" width="4.681" height="4.889" style="fill:#d45b5c;"/><rect x="785.043" y="435.065" width="4.681" height="4.889" style="fill:#eed2a0;"/></g><path d="M734.543,410.625c1.68,0 3.043,1.304 3.043,2.91c0,1.606 -1.363,2.91 -3.043,2.91c-1.68,0 -3.043,-1.304 -3.043,-2.91c0,-1.606 1.363,-2.91 3.043,-2.91Zm0,0.987c1.11,0 2.01,0.862 2.01,1.923c0,1.061 -0.9,1.923 -2.01,1.923c-1.11,0 -2.01,-0.862 -2.01,-1.923c0,-1.061 0.9,-1.923 2.01,-1.923Z" style="fill:#fff;stroke:#808080;stroke-width:0.39px;"/><ellipse cx="736.181" cy="415.161" rx="3.043" ry="2.91" style="fill:#2e7ff7;stroke:#808080;stroke-width:0.44px;"/></g><rect id="Toolbar.-Panel" x="494.71" y="385.704" width="24.586" height="165.767" style="fill:#353434;"/><g id="Context.-Toolbar"><rect x="495.88" y="385.704" width="297.998" height="20.495" style="fill:#353434;"/><rect x="547.52" y="391.761" width="38.388" height="8.381" style="fill:#525252;"/><rect x="597.846" y="391.761" width="38.388" height="8.381" style="fill:#525252;"/><rect x="648.171" y="391.761" width="38.388" height="8.381" style="fill:#525252;"/><rect x="698.496" y="391.761" width="38.388" height="8.381" style="fill:#525252;"/><rect x="748.821" y="391.761" width="38.388" height="8.381" style="fill:#525252;"/><path d="M505.065,392.88c0.392,-0.699 1.134,-1.131 1.938,-1.131c0.804,0 1.545,0.432 1.937,1.131c1.097,1.953 2.463,4.382 3.544,6.308c0.384,0.683 0.375,1.518 -0.023,2.193c-0.399,0.676 -1.127,1.091 -1.915,1.091c-2.178,0 -4.908,0 -7.087,0c-0.788,0 -1.516,-0.415 -1.915,-1.091c-0.398,-0.675 -0.407,-1.51 -0.023,-2.193c1.082,-1.926 2.447,-4.355 3.544,-6.308l0,0Z" style="fill:#00c2df;"/></g><g id="Toolbar"><rect id="TB10" x="502.438" y="411.087" width="9.129" height="9.3" style="fill:#fff;"/><rect id="TB9" x="502.438" y="424.816" width="9.129" height="9.3" style="fill:url(#_Linear1);"/><rect id="TB8" x="502.438" y="438.545" width="9.129" height="9.3" style="fill:#fff;"/><rect id="TB7" x="502.438" y="452.273" width="9.129" height="9.3" style="fill:#fee699;"/><rect id="TB6" x="502.438" y="465.558" width="9.129" height="9.3" style="fill:#73a3fd;"/><rect id="TB5" x="502.438" y="478.843" width="9.129" height="9.3" style="fill:#f35168;"/><rect id="TB4" x="502.438" y="492.128" width="9.129" height="9.3" style="fill:url(#_Linear2);"/><rect id="TB3" x="502.438" y="505.857" width="9.129" height="9.3" style="fill:url(#_Linear3);"/></g><g id="Zelda.-Dungeon"><rect id="Floor.2e.2e.2e..2e..-Bottom" x="549.067" y="428.752" width="147.205" height="99.236" style="fill:#8c6339;"/><g id="Stripes"><rect x="549.067" y="428.752" width="147.205" height="10.142" style="fill:#825a34;"/><rect x="549.067" y="451.026" width="147.205" height="10.142" style="fill:#825a34;"/><rect x="549.067" y="473.299" width="147.205" height="10.142" style="fill:#825a34;"/><rect x="549.067" y="495.572" width="147.205" height="10.142" style="fill:#825a34;"/></g><rect id="Mat" x="582.299" y="457.265" width="80.739" height="53.733" style="fill:#638463;"/><g id="Chest"><g><rect x="601.204" y="445.743" width="42.929" height="21.323" style="fill:#1f1a20;"/><rect x="603.936" y="447.252" width="37.467" height="18.304" style="fill:#dab407;"/><rect x="603.936" y="450.666" width="37.467" height="2.828" style="fill:#e6e3c9;"/><rect x="614.542" y="463.803" width="16.253" height="1.753" style="fill:#e6e3c9;"/><rect x="609.532" y="445.743" width="10.02" height="18.061" style="fill:#1f1a20;"/><rect x="611.2" y="447.373" width="6.686" height="15.31" style="fill:#9d2d28;"/><rect x="612.452" y="448.4" width="4.181" height="3.615" style="fill:#1f1a20;"/><rect x="612.452" y="457.504" width="4.181" height="3.615" style="fill:#1f1a20;"/><rect x="612.452" y="457.504" width="4.181" height="3.615" style="fill:#1f1a20;"/><rect x="612.452" y="447.373" width="4.181" height="3.055" style="fill:#e6e3c9;"/><rect x="612.452" y="447.373" width="4.181" height="3.055" style="fill:#e6e3c9;"/><rect x="612.452" y="456.477" width="4.181" height="3.055" style="fill:#e6e3c9;"/><rect x="612.452" y="456.477" width="4.181" height="3.055" style="fill:#e6e3c9;"/><rect x="625.786" y="445.743" width="10.02" height="18.061" style="fill:#1f1a20;"/><rect x="627.453" y="447.373" width="6.686" height="15.31" style="fill:#9d2d28;"/><rect x="628.705" y="448.4" width="4.181" height="3.615" style="fill:#1f1a20;"/><rect x="628.705" y="457.504" width="4.181" height="3.615" style="fill:#1f1a20;"/><rect x="628.705" y="447.373" width="4.181" height="3.055" style="fill:#e6e3c9;"/><rect x="628.705" y="456.477" width="4.181" height="3.055" style="fill:#e6e3c9;"/></g><g><rect x="601.204" y="467.04" width="42.929" height="11.01" style="fill:#1f1a20;"/><rect x="603.936" y="467.04" width="37.467" height="8.632" style="fill:#dab407;"/><rect x="607.538" y="467.04" width="30.262" height="6.972" style="fill:#1f1a20;"/><rect x="609.845" y="467.04" width="25.649" height="5.505" style="fill:#9d2d28;"/><rect x="617.754" y="467.04" width="9.831" height="5.505" style="fill:#dab407;"/><rect x="620.048" y="467.04" width="5.243" height="4.316" style="fill:#1f1a20;"/></g></g><g id="Fires"><path d="M576.26,436.249c0,-1.14 -0.475,-2.233 -1.32,-3.038c-0.845,-0.805 -1.991,-1.258 -3.186,-1.258c-3.99,0 -9.785,0 -13.776,0c-1.194,0 -2.341,0.453 -3.186,1.258c-0.844,0.805 -1.319,1.898 -1.319,3.038c0,2.846 0,6.566 0,9.413c0,1.139 0.475,2.231 1.319,3.037c0.845,0.806 1.992,1.258 3.186,1.258c3.991,0 9.786,0 13.776,0c1.195,0 2.341,-0.452 3.186,-1.258c0.845,-0.806 1.32,-1.898 1.32,-3.037c0,-2.847 0,-6.567 0,-9.413Z" style="fill:#e6e3c9;"/><path d="M573.867,438.139c0,-1.14 -0.474,-2.233 -1.319,-3.038c-0.845,-0.805 -1.991,-1.258 -3.186,-1.258c-2.747,0 -6.245,0 -8.992,0c-1.195,0 -2.341,0.453 -3.186,1.258c-0.845,0.805 -1.319,1.898 -1.319,3.038c0,1.783 0,3.849 0,5.633c0,1.139 0.474,2.232 1.319,3.037c0.845,0.806 1.991,1.258 3.186,1.258c2.747,0 6.245,0 8.992,0c1.195,0 2.341,-0.452 3.186,-1.258c0.845,-0.805 1.319,-1.898 1.319,-3.037c0,-1.784 0,-3.85 0,-5.633Z" style="fill:#ce7b4a;"/><ellipse cx="564.866" cy="440.955" rx="4.008" ry="3.621" style="fill:#dab407;"/><ellipse cx="564.866" cy="440.955" rx="2.004" ry="1.811" style="fill:#fff;"/><path d="M690.947,436.249c0,-1.14 -0.474,-2.233 -1.319,-3.038c-0.845,-0.805 -1.991,-1.258 -3.186,-1.258c-3.991,0 -9.785,0 -13.776,0c-1.195,0 -2.341,0.453 -3.186,1.258c-0.845,0.805 -1.319,1.898 -1.319,3.038c0,2.846 0,6.566 0,9.413c0,1.139 0.474,2.231 1.319,3.037c0.845,0.806 1.991,1.258 3.186,1.258c3.991,0 9.785,0 13.776,0c1.195,0 2.341,-0.452 3.186,-1.258c0.845,-0.806 1.319,-1.898 1.319,-3.037c0,-2.847 0,-6.567 0,-9.413Z" style="fill:#e6e3c9;"/><path d="M688.555,438.139c0,-1.14 -0.475,-2.233 -1.319,-3.038c-0.845,-0.805 -1.991,-1.258 -3.186,-1.258c-2.747,0 -6.245,0 -8.992,0c-1.195,0 -2.341,0.453 -3.186,1.258c-0.845,0.805 -1.319,1.898 -1.319,3.038c0,1.783 0,3.849 0,5.633c0,1.139 0.474,2.232 1.319,3.037c0.845,0.806 1.991,1.258 3.186,1.258c2.747,0 6.245,0 8.992,0c1.195,0 2.341,-0.452 3.186,-1.258c0.844,-0.805 1.319,-1.898 1.319,-3.037c0,-1.784 0,-3.85 0,-5.633Z" style="fill:#ce7b4a;"/><ellipse cx="679.554" cy="440.955" rx="4.008" ry="3.621" style="fill:#dab407;"/><ellipse cx="679.554" cy="440.955" rx="2.004" ry="1.811" style="fill:#fff;"/><path d="M690.947,510.265c0,-1.138 -0.474,-2.231 -1.319,-3.037c-0.845,-0.805 -1.991,-1.258 -3.186,-1.258c-3.991,0 -9.785,0 -13.776,0c-1.195,0 -2.341,0.453 -3.186,1.258c-0.845,0.806 -1.319,1.899 -1.319,3.037c0,2.847 0,6.567 0,9.414c0,1.139 0.474,2.231 1.319,3.037c0.845,0.805 1.991,1.258 3.186,1.258c3.991,0 9.785,0 13.776,0c1.195,0 2.341,-0.453 3.186,-1.258c0.845,-0.806 1.319,-1.898 1.319,-3.037c0,-2.847 0,-6.567 0,-9.414Z" style="fill:#e6e3c9;"/><path d="M688.555,512.156c0,-1.14 -0.475,-2.232 -1.319,-3.038c-0.845,-0.805 -1.991,-1.258 -3.186,-1.258c-2.747,0 -6.245,0 -8.992,0c-1.195,0 -2.341,0.453 -3.186,1.258c-0.845,0.806 -1.319,1.898 -1.319,3.038c0,1.783 0,3.849 0,5.632c0,1.14 0.474,2.232 1.319,3.038c0.845,0.806 1.991,1.258 3.186,1.258c2.747,0 6.245,0 8.992,0c1.195,0 2.341,-0.452 3.186,-1.258c0.844,-0.806 1.319,-1.898 1.319,-3.038c0,-1.783 0,-3.849 0,-5.632Z" style="fill:#ce7b4a;"/><ellipse cx="679.554" cy="514.972" rx="4.008" ry="3.621" style="fill:#dab407;"/><path d="M576.26,510.265c0,-1.138 -0.475,-2.231 -1.32,-3.037c-0.845,-0.805 -1.991,-1.258 -3.186,-1.258c-3.99,0 -9.785,0 -13.776,0c-1.194,0 -2.341,0.453 -3.186,1.258c-0.844,0.806 -1.319,1.899 -1.319,3.037c0,2.847 0,6.567 0,9.414c0,1.139 0.475,2.231 1.319,3.037c0.845,0.805 1.992,1.258 3.186,1.258c3.991,0 9.786,0 13.776,0c1.195,0 2.341,-0.453 3.186,-1.258c0.845,-0.806 1.32,-1.898 1.32,-3.037c0,-2.847 0,-6.567 0,-9.414Z" style="fill:#e6e3c9;"/><path d="M573.867,512.156c0,-1.14 -0.474,-2.232 -1.319,-3.038c-0.845,-0.805 -1.991,-1.258 -3.186,-1.258c-2.747,0 -6.245,0 -8.992,0c-1.195,0 -2.341,0.453 -3.186,1.258c-0.845,0.806 -1.319,1.898 -1.319,3.038c0,1.783 0,3.849 0,5.632c0,1.14 0.474,2.232 1.319,3.038c0.845,0.806 1.991,1.258 3.186,1.258c2.747,0 6.245,0 8.992,0c1.195,0 2.341,-0.452 3.186,-1.258c0.845,-0.806 1.319,-1.898 1.319,-3.038c0,-1.783 0,-3.849 0,-5.632Z" style="fill:#ce7b4a;"/><ellipse cx="564.866" cy="514.972" rx="4.008" ry="3.621" style="fill:#dab407;"/></g></g><g id="Crosshair"><rect x="583.704" y="455.319" width="0.936" height="6.983" style="fill:#525252;"/><rect x="580.662" y="458.344" width="7.021" height="0.931" style="fill:#525252;"/></g><rect x="0" y="0" width="1024" height="512" style="fill:#ebebeb;fill-opacity:0;"/><defs><linearGradient id="_Linear1" x1="0" y1="0" x2="1" y2="0" gradientUnits="userSpaceOnUse" gradientTransform="matrix(9.12876,0,0,9.07906,502.438,429.466)"><stop offset="0" style="stop-color:#00abff;stop-opacity:1"/><stop offset="0.21" style="stop-color:#0db2ff;stop-opacity:1"/><stop offset="0.43" style="stop-color:#1bb9fe;stop-opacity:1"/><stop offset="1" style="stop-color:#22bcfe;stop-opacity:1"/></linearGradient><linearGradient id="_Linear2" x1="0" y1="0" x2="1" y2="0" gradientUnits="userSpaceOnUse" gradientTransform="matrix(9.12876,0,0,9.07906,502.438,496.778)"><stop offset="0" style="stop-color:#00abff;stop-opacity:1"/><stop offset="0.21" style="stop-color:#0db2ff;stop-opacity:1"/><stop offset="0.43" style="stop-color:#1bb9fe;stop-opacity:1"/><stop offset="1" style="stop-color:#22bcfe;stop-opacity:1"/></linearGradient><linearGradient id="_Linear3" x1="0" y1="0" x2="1" y2="0" gradientUnits="userSpaceOnUse" gradientTransform="matrix(9.12876,0,0,9.07906,502.438,510.507)"><stop offset="0" style="stop-color:#00abff;stop-opacity:1"/><stop offset="0.21" style="stop-color:#0db2ff;stop-opacity:1"/><stop offset="0.43" style="stop-color:#1bb9fe;stop-opacity:1"/><stop offset="1" style="stop-color:#22bcfe;stop-opacity:1"/></linearGradient></defs></svg>