<?xml version="1.0" standalone="no"?><!-- Generator: Gravit.io --><svg xmlns="http://www.w3.org/2000/svg" xmlns:xlink="http://www.w3.org/1999/xlink" style="isolation:isolate" viewBox="406.5529100529101 204.86191942023953 626.8941798941797 480.32019218290606" width="626.8941798941797" height="480.32019218290606"><path d=" M 745.7195865229216 214.81788839685436 L 965.5252571510732 392.14475805811605 L 745.7195865229216 569.3610058418599 L 525.803294017252 392.14475805811605 L 745.7195865229216 214.81788839685436 Z " fill-rule="evenodd" fill="none"/><g style="isolation: isolate;"><path d=" M 745.7195865229216 214.81788839685436 L 965.5252571510732 392.14475805811605 L 745.7195865229216 569.3610058418599 L 525.803294017252 392.14475805811605 L 745.7195865229216 214.81788839685436 Z " fill-rule="evenodd" fill="none" vector-effect="non-scaling-stroke" stroke-width="2.2124375503588487" stroke="rgb(255,255,255)" stroke-opacity="0.1" stroke-linejoin="miter" stroke-linecap="round" stroke-miterlimit="9"/></g><path d=" M 620.4956211726108 466.59328162769134 L 620.4956211726108 278.978577357261 L 891.5192210915698 368.9141637793482 C 891.5192210915698 368.9141637793482 892.2935742341953 558.0775743350298 891.5192210915698 558.2988180900657 C 890.855489826462 558.6306837226194 620.4956211726108 466.4826597501734 620.4956211726108 466.4826597501734 L 620.4956211726108 466.59328162769134 Z " fill-rule="evenodd" fill="rgb(255,255,255)"/><path d=" M 620.4956211726108 278.978577357261 L 629.6772370066 273.77934911391765 L 899.1521306403077 363.93617929104073 L 891.6298429690876 368.9141637793482 L 620.6062430501287 278.86795547974305 L 620.4956211726108 278.978577357261 Z " fill-rule="evenodd" fill="rgb(236,238,244)"/><path d=" M 458.87705811889685 595.0252814260225 L 620.8274868051645 512.3907389201195 L 891.8510867241235 604.2068972600117 L 730.8962549355173 685.1821116031456 L 458.76643624137887 595.0252814260225 L 458.87705811889685 595.0252814260225 Z " fill-rule="evenodd" fill="rgb(43,46,54)" fill-opacity="0.2"/><path d=" M 458.545192486343 549.1172022560763 L 620.4956211726108 466.59328162769134 L 891.5192210915698 558.4094399675836 L 730.5643893029635 639.1634105556816 L 458.4345706088251 549.1172022560764 L 458.545192486343 549.1172022560763 Z " fill-rule="evenodd" fill="rgb(237,240,247)"/><path d=" M 522.4846376917137 545.5773021755022 L 636.4251715351945 487.39019460106454 L 828.0222633962708 552.2146148265788 L 714.08172955279 608.9636379932833 L 522.7058814467496 545.5773021755022 L 522.4846376917137 545.5773021755022 Z " fill-rule="evenodd" fill="rgb(215,222,237)"/><linearGradient id="_lgradient_2" x1="9.21751146726216%" y1="13.449455640594943%" x2="97.81977900070149%" y2="94.07368073470643%"><stop offset="0%" stop-opacity="1" style="stop-color:rgb(210,224,244)"/><stop offset="100%" stop-opacity="1" style="stop-color:rgb(220,234,254)"/></linearGradient><path d=" M 458.545192486343 549.1172022560763 C 458.545192486343 555.0907836420453 462.416958199471 560.4006337629064 468.05867395288607 562.3918275582295 L 730.6750111804814 648.4556482671887 L 730.6750111804814 639.2740324331994 L 458.545192486343 549.1172022560763 Z " fill-rule="evenodd" fill="url(#_lgradient_2)"/><path d=" M 730.6750111804814 639.2740324331994 L 730.6750111804814 648.4556482671887 L 891.6298429690876 564.1617775985166 L 891.6298429690876 558.2988180900657 L 730.6750111804814 639.2740324331994 Z " fill-rule="evenodd" fill="rgb(210,224,244)"/><path d=" M 891.6298429690876 368.9141637793482 L 891.6298429690876 558.2988180900657 L 895.6122305597337 554.3164304994197 C 897.8246681100925 552.1039929490607 899.2627525178257 548.7853366235225 899.2627525178257 545.7985459305381 L 899.2627525178257 363.93617929104073 L 891.7404648466056 368.9141637793482 L 891.6298429690876 368.9141637793482 Z " fill-rule="evenodd" fill="rgb(253,253,253)"/><path d=" M 630.4515901492256 459.84534709909684 L 630.4515901492256 293.02755580203967 L 882.4482271350985 376.3258295730503 L 882.4482271350985 541.5949145848563 L 630.4515901492256 459.73472522157886 L 630.4515901492256 459.84534709909684 Z " fill-rule="evenodd" fill="rgb(32,24,59)"/><path d=" M 687.5324789484839 357.74135415003593 L 691.5148665391298 357.74135415003593 L 691.5148665391298 446.4600999194258 L 687.5324789484839 446.4600999194258 L 687.5324789484839 357.74135415003593 Z  M 798.3756002214622 419.6896055600837 L 802.468609689626 419.6896055600837 L 802.468609689626 450.99559689766147 L 798.1543564664263 450.99559689766147 L 798.3756002214622 419.6896055600837 Z " fill-rule="evenodd" fill="rgb(70,116,186)"/><path d=" M 798.3756002214622 393.2509768332955 L 802.468609689626 393.2509768332955 L 802.468609689626 427.54375886385765 L 798.1543564664263 427.54375886385765 L 798.3756002214622 393.2509768332955 Z  M 744.1708802376704 376.6576952056041 L 748.2638897058342 376.6576952056041 L 748.2638897058342 409.8442584609869 L 743.9496364826346 409.8442584609869 L 744.1708802376704 376.6576952056041 Z " fill-rule="evenodd" fill="rgb(57,66,168)"/><path d=" M 744.1708802376704 405.751248992823 L 748.2638897058342 405.751248992823 L 748.2638897058342 438.9378122482057 L 743.9496364826346 438.9378122482057 L 744.1708802376704 405.751248992823 Z " fill-rule="evenodd" fill="rgb(220,234,254)"/><path d=" M 688.6386977236633 385.3968235295216 L 687.5324789484839 389.3792111201675 L 718.2853608984719 398.78207070919257 L 719.3915796736512 394.9103049960646 L 688.6386977236633 385.3968235295216 Z " fill-rule="evenodd" fill="rgb(70,116,186)"/><path d=" M 747.2682928081728 377.9851577358194 L 746.1620740329934 381.96754532646537 L 801.9155003020363 399.2245582192644 L 803.0217190772157 395.3527925061364 L 747.3789146856907 378.20640149085534 L 747.2682928081728 377.9851577358194 Z " fill-rule="evenodd" fill="rgb(57,66,168)"/><path d=" M 722.9314797542254 396.45901128131584 L 721.6040172240101 400.3307769944438 L 752.3568991739982 409.84425846098685 L 753.4631179491776 405.97249274785884 L 722.8208578767076 396.45901128131584 L 722.9314797542254 396.45901128131584 Z " fill-rule="evenodd" fill="rgb(220,234,254)"/><path d=" M 687.5324789484839 409.8442584609869 L 691.5148665391298 409.8442584609869 L 691.5148665391298 451.880571917805 L 687.5324789484839 451.880571917805 L 687.5324789484839 409.8442584609869 Z " fill-rule="evenodd" fill="rgb(255,255,255)"/><path d=" M 680.8951662974074 360.61752296550264 C 680.8951662974074 355.8553206575679 684.7614704358722 351.98901651910313 689.5236727438069 351.98901651910313 C 694.2858750517415 351.98901651910313 698.1521791902063 355.8553206575679 698.1521791902063 360.61752296550264 C 698.1521791902064 365.3797252734374 694.2858750517415 369.24602941190216 689.5236727438069 369.24602941190216 C 684.7614704358722 369.24602941190216 680.8951662974074 365.3797252734374 680.8951662974074 360.61752296550264 Z " fill="rgb(70,116,186)"/><path d=" M 680.8951662974074 388.49423610002395 C 680.8951662974074 383.7320337920892 684.7614704358722 379.86572965362444 689.5236727438069 379.86572965362444 C 694.2858750517415 379.86572965362444 698.1521791902063 383.7320337920892 698.1521791902063 388.49423610002395 C 698.1521791902064 393.2564384079587 694.2858750517415 397.12274254642347 689.5236727438069 397.12274254642347 C 684.7614704358722 397.12274254642347 680.8951662974074 393.2564384079587 680.8951662974074 388.49423610002395 Z " fill="rgb(70,116,186)"/><path d=" M 680.8951662974074 416.4815711120634 C 680.8951662974074 411.7193688041287 684.7614704358722 407.8530646656639 689.5236727438069 407.8530646656639 C 694.2858750517415 407.8530646656639 698.1521791902063 411.7193688041287 698.1521791902063 416.4815711120634 C 698.1521791902064 421.24377341999815 694.2858750517415 425.11007755846293 689.5236727438069 425.11007755846293 C 684.7614704358722 425.11007755846293 680.8951662974074 421.24377341999815 680.8951662974074 416.4815711120634 Z " fill="rgb(255,255,255)"/><path d=" M 709.6568544520725 397.12274254642364 C 709.6568544520725 392.3605402384889 713.5231585905373 388.4942361000241 718.2853608984719 388.4942361000241 C 723.0475632064066 388.4942361000241 726.9138673448714 392.3605402384889 726.9138673448714 397.12274254642364 C 726.9138673448715 401.88494485435837 723.0475632064066 405.75124899282315 718.2853608984719 405.75124899282315 C 713.5231585905373 405.75124899282315 709.6568544520725 401.88494485435837 709.6568544520725 397.12274254642364 Z " fill="rgb(220,234,254)"/><path d=" M 737.5335675865939 405.7512489928231 C 737.5335675865939 400.98904668488836 741.3998717250587 397.1227425464236 746.1620740329934 397.1227425464236 C 750.924276340928 397.1227425464236 754.7905804793928 400.98904668488836 754.7905804793928 405.7512489928231 C 754.7905804793929 410.5134513007578 750.924276340928 414.3797554392226 746.1620740329934 414.3797554392226 C 741.3998717250587 414.3797554392226 737.5335675865939 410.5134513007578 737.5335675865939 405.7512489928231 Z " fill="rgb(220,234,254)"/><path d=" M 791.7382875703858 422.2339087429965 C 791.7382875703858 417.4717064350618 795.6045917088505 413.605402296597 800.3667940167852 413.605402296597 C 805.1289963247199 413.605402296597 808.9953004631847 417.4717064350618 808.9953004631847 422.2339087429965 C 808.9953004631848 426.99611105093123 805.1289963247199 430.862415189396 800.3667940167852 430.862415189396 C 795.6045917088505 430.862415189396 791.7382875703858 426.99611105093123 791.7382875703858 422.2339087429965 Z " fill="rgb(70,116,186)"/><path d=" M 791.7382875703858 445.35388114424643 C 791.7382875703858 440.5916788363117 795.6045917088505 436.7253746978469 800.3667940167852 436.7253746978469 C 805.1289963247199 436.7253746978469 808.9953004631847 440.5916788363117 808.9953004631847 445.35388114424643 C 808.9953004631848 450.11608345218116 805.1289963247199 453.98238759064594 800.3667940167852 453.98238759064594 C 795.6045917088505 453.98238759064594 791.7382875703858 450.11608345218116 791.7382875703858 445.35388114424643 Z " fill="rgb(70,116,186)"/><path d=" M 737.5335675865939 433.73858400486256 C 737.5335675865939 428.97638169692783 741.3998717250587 425.11007755846305 746.1620740329934 425.11007755846305 C 750.924276340928 425.11007755846305 754.7905804793928 428.97638169692783 754.7905804793928 433.73858400486256 C 754.7905804793929 438.5007863127973 750.924276340928 442.3670904512621 746.1620740329934 442.3670904512621 C 741.3998717250587 442.3670904512621 737.5335675865939 438.5007863127973 737.5335675865939 433.73858400486256 Z " fill="rgb(220,234,254)"/><path d=" M 737.5335675865939 379.8657296536245 C 737.5335675865939 375.10352734568977 741.3998717250587 371.237223207225 746.1620740329934 371.237223207225 C 750.924276340928 371.237223207225 754.7905804793928 375.10352734568977 754.7905804793928 379.8657296536245 C 754.7905804793929 384.6279319615592 750.924276340928 388.494236100024 746.1620740329934 388.494236100024 C 741.3998717250587 388.494236100024 737.5335675865939 384.6279319615592 737.5335675865939 379.8657296536245 Z " fill="rgb(57,66,168)"/><path d=" M 764.6359275784897 388.49423610002395 C 764.6359275784897 383.7320337920892 768.5022317169545 379.86572965362444 773.2644340248892 379.86572965362444 C 778.0266363328238 379.86572965362444 781.8929404712886 383.7320337920892 781.8929404712886 388.49423610002395 C 781.8929404712887 393.2564384079587 778.0266363328238 397.12274254642347 773.2644340248892 397.12274254642347 C 768.5022317169545 397.12274254642347 764.6359275784897 393.2564384079587 764.6359275784897 388.49423610002395 Z " fill="rgb(57,66,168)"/><path d=" M 791.7382875703858 397.12274254642364 C 791.7382875703858 392.3605402384889 795.6045917088505 388.4942361000241 800.3667940167852 388.4942361000241 C 805.1289963247199 388.4942361000241 808.9953004631847 392.3605402384889 808.9953004631847 397.12274254642364 C 808.9953004631848 401.88494485435837 805.1289963247199 405.75124899282315 800.3667940167852 405.75124899282315 C 795.6045917088505 405.75124899282315 791.7382875703858 401.88494485435837 791.7382875703858 397.12274254642364 Z " fill="rgb(57,66,168)"/><path d=" M 680.8951662974074 444.3582842465851 C 680.8951662974074 439.59608193865034 684.7614704358722 435.72977780018556 689.5236727438069 435.72977780018556 C 694.2858750517415 435.72977780018556 698.1521791902063 439.59608193865034 698.1521791902063 444.3582842465851 C 698.1521791902064 449.1204865545198 694.2858750517415 452.9867906929846 689.5236727438069 452.9867906929846 C 684.7614704358722 452.9867906929846 680.8951662974074 449.1204865545198 680.8951662974074 444.3582842465851 Z " fill="rgb(255,255,255)"/><path d=" M 528.2369753226468 296.12496837254207 L 528.2369753226468 419.46836180504783 L 406.5529100529101 443.0308217163696 L 406.5529100529101 320.5724033040073 L 528.2369753226468 296.23559025006 L 528.2369753226468 296.12496837254207 Z " fill-rule="evenodd" fill="rgb(255,255,255)" fill-opacity="0.2"/><path d=" M 540.4053818496204 306.63404673674654 L 540.4053818496204 430.1986839242883 L 418.72131657988376 453.4292782030561 L 418.72131657988376 331.4133473007657 L 540.4053818496204 306.63404673674654 Z " fill-rule="evenodd" fill="rgb(25,18,49)" fill-opacity="0.3"/><path d=" M 559.6535885377424 314.0457125304487 L 559.6535885377424 437.4997278404725 L 437.96952326800573 460.7303221192404 L 437.96952326800573 338.7143912169499 L 559.6535885377424 314.37757816300257 L 559.6535885377424 314.0457125304487 Z " fill-rule="evenodd" fill="rgb(32,24,59)"/><path d=" M 437.96952326800573 338.49314746191396 L 437.96952326800573 358.07321978258983 L 559.6535885377424 334.2895161162322 L 559.6535885377424 314.37757816300257 L 437.96952326800573 338.7143912169499 L 437.96952326800573 338.49314746191396 Z " fill-rule="evenodd" fill="rgb(25,18,49)"/><path d=" M 470.4923552582808 338.7143912169499 C 472.70479280863964 338.7143912169499 474.2534990938908 340.26309750220105 474.2534990938908 342.364913175042 C 474.2534990938908 344.356106970365 472.70479280863964 346.12605701065206 470.7135990133167 346.12605701065206 C 468.50116146295784 346.12605701065206 466.9524551777066 344.57735072540083 466.8418333001887 342.47553505255996 C 466.8418333001887 340.48434125723696 468.50116146295784 338.7143912169499 470.4923552582808 338.7143912169499 Z " fill-rule="evenodd" fill="rgb(124,194,65)"/><path d=" M 458.87705811889685 341.1480725223446 C 460.8682519142198 341.1480725223446 462.6382019545069 342.6967788075958 462.6382019545069 344.7985944804367 C 462.6382019545069 346.7897882757597 461.0894956692557 348.5597383160467 458.9876799964148 348.5597383160467 C 456.99648620109184 348.5597383160467 455.22653616080476 346.9004101532776 455.22653616080476 344.7985944804367 C 455.22653616080476 342.5861569300779 456.7752424460559 341.03745064482666 458.87705811889685 341.03745064482666 L 458.87705811889685 341.1480725223446 Z " fill-rule="evenodd" fill="rgb(250,204,57)"/><path d=" M 447.15113910199494 343.47113195022143 C 449.3635766523538 343.47113195022143 450.912282937605 345.13046011299053 451.02290481512296 347.12165390831353 C 451.02290481512296 349.33409145867233 449.4741985298717 350.88279774392356 447.37238285703086 350.9934196214415 C 445.159945306672 350.9934196214415 443.50061714390284 349.44471333619026 443.50061714390284 347.4535195408673 C 443.50061714390284 345.2410819905085 445.0493234291541 343.6923757052573 447.040517224477 343.58175382773936 L 447.15113910199494 343.47113195022143 Z " fill-rule="evenodd" fill="rgb(239,78,78)"/><path d=" M 952.6931193589919 313.2713593878231 L 952.6931193589919 436.72537469784686 L 1033.4470899470898 459.95596897661477 L 1033.4470899470898 337.82941619680633 L 952.6931193589919 313.492603142859 L 952.6931193589919 313.2713593878231 Z " fill-rule="evenodd" fill="rgb(255,255,255)" fill-opacity="0.2"/><path d=" M 944.6177223001821 323.89105962954557 L 944.6177223001821 447.3450749395694 L 1025.37169288828 470.5756692183372 L 1025.37169288828 348.6703601935647 L 944.6177223001821 324.1123033845815 L 944.6177223001821 323.89105962954557 Z " fill-rule="evenodd" fill="rgb(25,18,49)" fill-opacity="0.3"/><linearGradient id="_lgradient_3" x1="15.647024860351255%" y1="11.296245996080712%" x2="84.8702110002118%" y2="90.74621206822387%"><stop offset="0%" stop-opacity="1" style="stop-color:rgb(32,24,59)"/><stop offset="50%" stop-opacity="1" style="stop-color:rgb(49,37,91)"/><stop offset="100%" stop-opacity="1" style="stop-color:rgb(55,42,102)"/></linearGradient><path d=" M 1012.7607988512347 478.09795688955734 L 1012.7607988512347 354.53331970201566 L 931.7855845081008 331.08148166821184 L 931.7855845081008 453.4292782030561 L 1012.7607988512347 477.7660912570035 L 1012.7607988512347 478.09795688955734 Z " fill-rule="evenodd" fill="url(#_lgradient_3)"/><path d=" M 507.85326388568876 388.0039588984336 C 506.70278371445914 378.0519930390156 513.0690409542218 369.12832030858124 522.0609644869511 368.08882420582603 C 531.0528880196805 367.0493281030708 539.2872331564379 374.2851229047141 540.4377133276674 384.2370887641321 C 541.588193498897 394.18905462355013 535.2219362591344 403.1127273539845 526.2300127264051 404.1522234567397 C 517.2380891936757 405.1917195594949 509.0037440569184 397.9559247578516 507.85326388568876 388.0039588984336 Z " fill="rgb(166,190,207)"/><path d=" M 458.67953653706445 393.68860443070344 C 457.52905636583483 383.7366385712854 463.8953136055975 374.81296584085106 472.88723713832684 373.77346973809586 C 481.8791606710561 372.73397363534065 490.1135058078135 379.96976843698394 491.2639859790431 389.92173429640195 C 492.41446615027274 399.87370015581996 486.0482089105101 408.7973728862543 477.05628537778074 409.83686898900953 C 468.06436184505145 410.87636509176474 459.83001670829407 403.64057029012145 458.67953653706445 393.68860443070344 Z " fill="rgb(166,190,207)"/><path d=" M 510.02403716548395 387.7530103270741 C 509.0268450065085 379.1270273944028 514.5448617643592 371.39233087114917 522.3387029189548 370.49133705417483 C 530.1325440735505 369.5903432372005 537.2697478888967 375.8620544028203 538.2669400478723 384.48803733549164 C 539.2641322068476 393.1140202681629 533.746115448997 400.84871679141656 525.9522742944014 401.7497106083909 C 518.1584331398057 402.65070442536523 511.02122932445945 396.3789932597454 510.02403716548395 387.7530103270741 Z " fill="rgb(129,156,175)"/><path d=" M 460.85030981685964 393.4376558593439 C 459.8531176578842 384.8116729266726 465.3711344157349 377.076976403419 473.16497557033057 376.17598258644466 C 480.95881672492624 375.2749887694703 488.09602054027243 381.54669993509015 489.09321269924794 390.17268286776147 C 490.0904048582234 398.79866580043273 484.5723881003727 406.53336232368633 476.778546945777 407.4343561406607 C 468.98470579118134 408.33534995763506 461.84750197583514 402.06363879201524 460.85030981685964 393.4376558593439 Z " fill="rgb(129,156,175)"/><path d=" M 472.8092177621718 399.1378913765432 C 471.01451972221156 383.6132660346221 482.0795680925777 369.5616417482212 497.5033022868666 367.7786070586425 C 512.9270364811555 365.9955723690638 526.9062191156756 377.1520007130923 528.7009171556359 392.67662605501346 C 530.4956151955962 408.20125139693465 519.43056682523 422.25287568333556 504.0068326309411 424.03591037291426 C 488.5830984366522 425.81894506249296 474.60391580213206 414.6625167184644 472.8092177621718 399.1378913765432 Z " fill="rgb(166,190,207)"/><path d=" M 483.29023387052075 392.85517077851006 C 482.7486170371777 388.1700381103348 486.1587010785702 383.92125418038904 490.9005850172886 383.37307671245645 C 495.642468956007 382.8248992445238 499.93200131513566 386.1835820507312 500.47361814847864 390.86871471890646 C 501.01523498182166 395.5538473870817 497.6051509404292 399.8026313170275 492.86326700171077 400.35080878496007 C 488.1213830629924 400.8989862528927 483.8318507038637 397.5403034466853 483.29023387052075 392.85517077851006 Z " fill="rgb(255,255,255)"/><path d=" M 499.7899909388473 391.5150569406644 C 499.2483741055043 386.82992427248917 502.65845814689675 382.58114034254345 507.4003420856152 382.0329628746108 C 512.1422260243336 381.48478540667816 516.4317583834622 384.84346821288557 516.9733752168053 389.5286008810608 C 517.5149920501482 394.21373354923605 514.1049080087557 398.46251747918177 509.36302407003734 399.0106949471144 C 504.62114013131895 399.55887241504706 500.3316077721903 396.20018960883965 499.7899909388473 391.5150569406644 Z " fill="rgb(255,255,255)"/><path d=" M 489.2312975836445 392.16836416215773 C 489.04322605874205 390.5414944065868 490.07824262456415 389.08337971772926 491.54116426523257 388.9142611371969 C 493.00408590590104 388.74514255666446 494.3444829104525 389.9286515796878 494.5325544353549 391.5555213352588 C 494.72062596025734 393.1823910908297 493.68560939443523 394.64050577968726 492.2226877537668 394.80962436021963 C 490.75976611309835 394.97874294075206 489.4193691085469 393.7952339177287 489.2312975836445 392.16836416215773 Z " fill="rgb(39,53,74)"/><path d=" M 505.6149232848358 390.27436283937084 C 505.42685175993336 388.64749308379993 506.46186832575546 387.18937839494237 507.9247899664239 387.02025981441 C 509.38771160709234 386.85114123387757 510.7281086116438 388.03465025690093 510.9161801365462 389.6615200124719 C 511.10425166144864 391.2883897680428 510.06923509562654 392.74650445690037 508.6063134549581 392.91562303743274 C 507.14339181428966 393.08474161796516 505.8029948097382 391.9012325949418 505.6149232848358 390.27436283937084 Z " fill="rgb(39,53,74)"/><path d=" M 508.4375846664726 400.11916064926515 C 507.984226233711 396.1974871100325 504.4376796618797 393.38595277689905 500.51600612264707 393.83931120966065 C 500.51600612264707 393.83931120966065 500.51600612264707 393.83931120966065 500.51600612264707 393.83931120966065 C 496.5943325834144 394.2926696424223 493.78279858617316 397.8392191198125 494.23615701893476 401.76089265904517 C 494.4802152988143 403.8720630466871 494.74756367349227 406.18469907806053 494.9916441222584 408.29606123259066 C 495.4449803861334 412.2175430049352 498.9915520324102 415.0292687690645 502.91322557164284 414.5759103363029 C 502.91322557164284 414.5759103363029 502.91322557164284 414.5759103363029 502.91322557164284 414.5759103363029 C 506.8348991108755 414.1225519035413 509.64640803367126 410.5758109951552 509.19307176979623 406.65432922281065 C 508.9489913210301 404.5429670682806 508.68164294635216 402.23033103690716 508.4375846664726 400.11916064926515 L 508.4375846664726 400.11916064926515 Z " fill-rule="evenodd" fill="rgb(190,132,95)"/><path d=" M 490.4655431268437 363.93617929104073 L 497.58314155865065 372.42520041049374 L 485.47251051967487 373.8252294166457 L 490.4655431268437 363.93617929104073 L 490.4655431268437 363.93617929104073 Z " fill-rule="evenodd" fill="rgb(166,190,207)"/><path d=" M 503.2599232090208 364.4948011495153 L 510.377521661821 372.9838224505658 L 498.26689062284515 374.38385145671776 L 503.2599232090208 364.4948011495153 Z " fill-rule="evenodd" fill="rgb(166,190,207)"/><path d=" M 950.0281742255336 407.6667764588049 C 950.3842432056326 410.67891539309824 953.7356810896117 413.15191677855876 958.6823693956381 414.2033639203099 C 958.2827177770123 418.97168008466775 959.507149982328 422.64162576409234 962.2859358363158 423.81309270861834 C 965.1418290418562 425.01740394699823 969.008252152038 423.52809427839765 972.4146760905876 419.8782644499752 C 976.4715398298526 422.5591569141039 980.346675374993 423.35844991948835 982.7760992378603 421.5982413337296 C 985.2739231332554 419.7890834950745 985.6132220829412 415.6852861807602 984.0682612883992 410.9880405662808 C 988.8372527559952 408.83488735087474 991.3263591004982 406.12583678808994 990.9656039252012 403.0741414550305 C 990.6182524959942 400.1317429278738 987.2929672646914 397.9262844071153 982.4113229387365 396.8782137815547 C 982.8713169944351 391.7538286370978 981.5469757214132 388.18781826514004 978.6535264471529 386.9680773709558 C 975.8633474089886 385.7912489279939 972.2410003759842 387.49579615594405 968.870121944241 391.0919905362723 C 964.5752086976054 388.1583095600077 960.7161627637066 387.54810146129654 958.1861545298949 389.38140650664803 C 955.7466727415265 391.1483067335845 955.4536422955191 395.05765764278954 956.9677591262533 399.69856659622224 C 952.5534911482139 401.77661790605566 949.6821682868692 404.73645153499643 950.0281742255336 407.6667764588049 L 950.0281742255336 407.6667764588049 Z " fill="rgb(255,255,255)"/><path d=" M 981.6019617759837 398.5532523043725 C 981.1996242922062 398.4674274019279 980.7952813624488 398.3916501931172 980.3889227548444 398.3252658384366 C 980.4237929584127 398.0597284197145 980.4533016635451 397.79351569775423 980.478103709745 397.52730297579393 C 980.8683675901743 393.23775634352796 979.8907024431213 389.9278905361622 977.7811369821757 389.0380659694008 C 975.7587367982836 388.1857923554257 972.7881801724709 389.64491801565583 969.9691626164787 392.65237075475125 C 969.6915515944083 392.9487470213476 969.4219879359256 393.25251069609413 969.1598014537259 393.56298647575295 C 968.9405274227486 393.4007090612595 968.7185726425531 393.2424630024603 968.4932669258353 393.08822783562084 C 964.8742810612206 390.61655659290204 961.4423746572993 389.78908502512695 959.5976764277713 391.12483483012625 C 957.8294204784249 392.4062738837931 957.6430060891024 395.6423679283281 958.910355861574 399.5242155783806 C 959.0357525105857 399.90844265713577 959.1718721564691 400.28933414716937 959.317384656483 400.6668491210123 C 958.8667681071136 400.84789178003166 958.433591775462 401.03564654396325 958.0205312948126 401.230113412807 C 954.3257682213872 402.9695308443255 952.1102517751276 405.2943543283551 952.3610399572171 407.42002474834317 C 952.6205456901989 409.6147398084952 955.5193564628951 411.52114131343944 959.6868624986056 412.4062592212685 C 960.0248210736823 412.4773502348814 960.3641200233682 412.5403785371058 960.7054346509011 412.5953645916763 C 960.6470976598081 413.0258601741099 960.6021695307387 413.4583612025233 960.5693098890839 413.89153753417486 C 960.2695724540979 417.8786710981705 961.2298076153004 420.91025058022785 963.2448306229094 421.76051874822303 C 965.3262328692653 422.63826971163627 968.4691248350725 421.1435985445997 971.3384371345037 418.0691066113201 C 971.5650832258306 417.8256904895799 971.7910642457865 417.56954592498795 972.0163699625044 417.30265789978955 C 972.3710883361273 417.56686517577 972.7331941179004 417.8210042943821 973.1019915408513 418.06575055886395 C 976.4983575538998 420.30943533564687 979.6734389740574 421.0135105844566 981.4356632376632 419.73677818972203 C 983.2562193764285 418.4177881832688 983.4962794457125 415.01874142100235 982.1947347729107 411.06181232911166 C 982.0954856606417 410.7593787971068 981.9848484801298 410.45160423040045 981.8648184454878 410.1391230047618 C 982.0874434129877 410.04726130064313 982.3047068820516 409.95404899004825 982.5165986208123 409.85815593023534 C 986.5258534817899 408.04496673588596 988.9800793908573 405.56592854875134 988.7172227213531 403.3410294802288 C 988.4650992805882 401.207992115825 985.6843028646869 399.42967312504396 981.6019617759837 398.5532523043725 L 981.6019617759837 398.5532523043725 L 981.6019617759837 398.5532523043725 Z " fill="rgb(83,193,222)"/><path d=" M 981.8587816438137 408.4761376215577 C 981.667670827426 408.5626378272404 981.4705334412316 408.6478078901813 981.2700297707137 408.7309520434079 C 980.6417214988475 407.3636880872964 979.8424182615958 405.92400297483033 978.8982829435021 404.450122962034 C 979.4441121335126 402.8468302923327 979.864549790445 401.28978566257535 980.1455168649716 399.83000516284153 C 980.5297439437267 399.89303346506597 980.9039130969808 399.9634287117063 981.2653435755159 400.0412113664969 C 984.7629641468133 400.7915755827195 987.012675493403 402.22991008870935 987.1642196791572 403.51536003433597 C 987.3264970936507 404.8846499001618 985.3201916369338 406.9110712078808 981.8587816438137 408.4761376215577 L 981.8587816438137 408.4761376215577 Z  M 980.7061004075482 411.5265028118754 C 981.2814383026911 413.27664324026586 981.5248441925639 414.88932876409734 981.4336475598161 416.1821661178743 C 981.3511684779604 417.34356490503194 981.0051676552297 418.15024531856676 980.5029159878123 418.5143565463198 C 979.4333789047733 419.2888475055043 976.8839352391312 418.7242326072334 973.9797527361318 416.8051026594373 C 973.6464905881201 416.5851789048899 973.3091970844141 416.3484544243275 972.9692228314902 416.09566591219163 C 973.8650841999257 414.88932876409734 974.7388242713791 413.50530500943984 975.5716573375902 411.98382635022335 C 977.3110747691087 411.634449011302 978.9425357693333 411.1999425369087 980.4083735344757 410.6916642996845 C 980.5163299657695 410.97529165969445 980.6162441494093 411.25357798500295 980.7061004075482 411.5265028118754 L 980.7061004075482 411.5265028118754 L 980.7061004075482 411.5265028118754 Z  M 966.4051576905008 419.98287506068016 C 965.3309292963304 420.49383404712233 964.4404294263309 420.60448145950136 963.8664319057971 420.36241594423745 C 962.6433400750904 419.84675029886296 961.8722000524283 417.4126300089305 962.1283548488875 414.0028602497921 C 962.1591988126952 413.5998474627765 962.2014461925467 413.1975304427335 962.2550867565745 412.7971984049359 C 963.7819422620278 412.95075826853724 965.4576612040173 412.99702677221563 967.2359750788647 412.93800936195095 C 968.4047561582391 414.20469406305165 969.6077321379437 415.3540192468611 970.8006501921471 416.3451188356059 C 970.6001567534965 416.5824776919374 970.3936213972382 416.8158461200438 970.1817245425439 417.0438325859796 C 968.9130343954633 418.40370913394077 967.6000863066178 419.4142492704495 966.4051576905008 419.98287506068016 L 966.4051576905008 419.98287506068016 L 966.4051576905008 419.98287506068016 Z  M 960.0194544593128 410.917624855906 C 958.1774369790028 410.526030832735 956.6224182589598 409.92318967843966 955.5200266501996 409.19899857862777 C 954.5296177124939 408.5478834746742 953.9857939684632 407.8518504735185 953.9140481153468 407.2456737305015 C 953.7618286263544 405.95551712594255 955.5408126885063 404.08936778673706 958.7004746847268 402.6014087246127 C 959.097440438201 402.415659406661 959.4997728060449 402.2406330855813 959.9068016009538 402.07770083158425 C 960.5324291236021 403.46843669115395 961.3069200827865 404.9087766431237 962.2074778782871 406.35249311128405 C 961.6609733850385 407.9812631304235 961.236514604279 409.580544908165 960.9495158440121 411.0906457310059 C 960.6383801089161 411.04034587163324 960.3279094451909 410.9826790678448 960.0194544593128 410.917624855906 L 960.0194544593128 410.917624855906 L 960.0194544593128 410.917624855906 Z  M 960.399660414241 399.0622058448348 C 959.314703907265 395.73693084539923 959.4649077184102 393.11974198673306 960.5304185616886 392.34725647352843 C 961.6663399994081 391.5251668679239 964.4712733901385 392.20175932131554 967.5953949954863 394.3354719889575 C 967.7952182468324 394.47225159027835 967.9963869887212 394.61576376024584 968.1988909892852 394.76529226815296 C 967.273526031651 395.9883892147933 966.3783348505201 397.3636954185588 965.5434912223956 398.8469682854853 C 963.8516826691645 399.19296910821606 962.2443586437689 399.62481529712585 960.7785259945603 400.1257061261997 C 960.6430714200475 399.77434380503297 960.5170096996651 399.41962543141017 960.399660414241 399.0622058448348 L 960.399660414241 399.0622058448348 L 960.399660414241 399.0622058448348 Z  M 976.5278662590322 401.07587824596754 C 976.1020671036637 400.5173206131052 975.6635190417089 399.9681353706386 975.213572679644 399.4283225185677 C 976.3904011226059 399.44107142515406 977.5243068824784 399.50612563709285 978.5951843401264 399.6207839414316 C 978.3973716506937 400.634659666662 978.1278131081446 401.701516000483 977.7918599790477 402.8018919313961 C 977.3821555508543 402.21783648536115 976.9610425906837 401.64249859021834 976.5278662590322 401.07587824596754 L 976.5278662590322 401.07587824596754 Z  M 969.4159511342515 395.7241819388129 C 970.2212911731773 396.4000990889665 971.0386945835841 397.163867051279 971.852752173402 398.0007110094498 C 970.4130670609359 398.0952739265209 968.9794187501439 398.25620073453814 967.5551581775484 398.481506451256 C 968.154638163454 397.4951135214436 968.7782551241887 396.571094054352 969.4159511342515 395.7241819388129 L 969.4159511342515 395.7241819388129 L 969.4159511342515 395.7241819388129 Z  M 963.6981228055631 402.52563151580193 C 963.4124695358388 403.16802906886346 963.1422356900515 403.8177935663408 962.8880914555058 404.47224425901607 C 962.3120833730585 403.4778090815497 961.8038051358343 402.4941173646897 961.3706236882491 401.5372331400097 C 962.3811535928907 401.19456790600054 963.4654399125621 400.885442732818 964.6013613502816 400.6158944221361 C 964.284859000816 401.24554306861125 963.983781191221 401.88255865950237 963.6981228055631 402.52563151580193 L 963.6981228055631 402.52563151580193 Z  M 965.9143094391272 411.4393273029546 C 964.7079825229001 411.44335865864883 963.5646839088976 411.3937341025144 962.5018538148372 411.2904536345511 C 962.7030174407922 410.2443884549704 962.9745967771221 409.15072462896956 963.3105447902855 408.03088768655795 C 963.7122069708248 408.612937686613 964.1279482006922 409.18559483253784 964.5577787117548 409.7481838210944 C 964.9963216577761 410.32217110976103 965.4482734658208 410.8861107047938 965.9143094391272 411.4393273029546 L 965.9143094391272 411.4393273029546 Z  M 971.7535132930002 415.1347503318174 C 970.9253766538543 414.44342398959395 970.0905330257298 413.66958786991313 969.2644069484973 412.8293878592862 C 969.9637960021091 412.77843316041 970.674583355831 412.71204880572947 971.3961039382922 412.63091009848273 C 972.1370650685172 412.54774548152164 972.8679682732413 412.4498469757289 973.5854677318755 412.33719411736996 C 972.9879983078833 413.35442589505647 972.3744443885834 414.2918695719725 971.7535132930002 415.1347503318174 L 971.7535132930002 415.1347503318174 Z  M 978.2210151868723 406.3035438583877 C 978.8339040348014 407.32814258048995 979.3669945500928 408.3259338104125 979.8095637358746 409.2821427318544 C 978.783614407296 409.63485565949736 977.6678088205787 409.9513682408302 976.4849538078098 410.2256232104445 C 976.7994404794284 409.58926245905707 977.100523404957 408.94686490599554 977.3881923525284 408.2984510149945 C 977.6805474952977 407.6392936633869 977.958158517368 406.97409951010525 978.2210151868723 406.3035438583877 L 978.2210151868723 406.3035438583877 L 978.2210151868723 406.3035438583877 Z  M 975.9532036671274 407.6936044147193 C 975.5126399273255 408.6873642889475 975.0392318936697 409.6670451138477 974.5329591024254 410.6306414434399 C 973.4634220193864 410.8271137582636 972.353653234343 410.9907213154988 971.2170667252527 411.1181285264239 C 970.0858365986646 411.2448604341108 968.981434427991 411.33404138901153 967.9139079068655 411.386346694364 C 967.1803188369898 410.56358178552125 966.479589408769 409.7139889207642 965.8123846935738 408.83957354607264 C 965.1485360308347 407.9698648303134 964.5182120811214 407.07602937159226 963.9240987095855 406.1593768489165 C 964.2875448659677 405.1354329663178 964.6912176084205 404.1249132935435 965.1331114909641 403.13047811607714 L 965.1331114909641 403.13047811607714 C 965.5743403021369 402.1360429386108 966.0551255120758 401.1576922564524 966.5727966034302 400.19880258579246 C 967.6443442483827 399.99764407577095 968.7480762317518 399.8320106088214 969.8685782455343 399.70593354063806 C 970.9944417577528 399.5798769361892 972.109572041232 399.4974080862007 973.1999002785113 399.4558257777202 C 973.9214106291051 400.2752346341068 974.6134327383012 401.1181358576862 975.2739304645177 401.9844885209893 C 975.9377740113231 402.8528670940068 976.5721190848634 403.7420163575301 977.1769656851386 404.65062663255185 C 976.8061423524733 405.6785814071103 976.3984433702599 406.69380773881693 975.9532036671274 407.6936044147193 L 975.9532036671274 407.6936044147193 L 975.9532036671274 407.6936044147193 Z  M 977.1601956547254 390.43618923712086 C 978.4583945069382 390.9840238731112 979.2583628155609 393.6890430802018 978.9204042404841 397.392528820453 C 978.8982829435021 397.6339190324788 978.8714549875876 397.8746544050009 978.8406161397136 398.1153897775231 C 977.2922992927155 397.9450701153757 975.6246277143135 397.8766598509808 973.8912368526019 397.91220535778723 C 972.7278223875971 396.63815371227065 971.5442920715902 395.4941900268972 970.3761862954541 394.519870700433 C 970.6182569266516 394.2335421274705 970.8677098500658 393.95325035618225 971.1238544146578 393.678995386568 C 973.539199228197 391.1020382299061 975.9411300637793 389.9225290377262 977.1601956547254 390.43618923712086 L 977.1601956547254 390.43618923712086 L 977.1601956547254 390.43618923712086 Z " fill-rule="evenodd" fill="rgb(255,255,255)"/><path d=" M 970.1656349313024 402.2171816458575 C 971.9587031587159 402.01600267210154 973.5794309302014 403.2692836271124 973.7859611705261 405.01606800304666 C 973.9924914108508 406.76287284271547 972.706366161986 408.3426936089585 970.9133030505061 408.54387258271447 C 969.1202348230925 408.74435578949783 967.4995019356734 407.4917706014596 967.2929716953487 405.74429045855277 C 967.086441455024 403.99816092212205 968.3725667038888 402.41834015587904 970.1656349313024 402.2171816458575" fill="rgb(83,193,222)"/></svg>